<?xml version="1.0" standalone="no"?>
<!DOCTYPE svg PUBLIC "-//W3C//DTD SVG 20010904//EN"
 "http://www.w3.org/TR/2001/REC-SVG-20010904/DTD/svg10.dtd">
<svg version="1.0" xmlns="http://www.w3.org/2000/svg"
 width="2048.000000pt" height="2048.000000pt" viewBox="0 0 2048.000000 2048.000000"
 preserveAspectRatio="xMidYMid meet">
<metadata>
Created by potrace 1.11, written by Peter Selinger 2001-2013
</metadata>
<g transform="translate(0.000000,2048.000000) scale(0.100000,-0.100000)"
fill="#000000" stroke="none">
<path d="M0 10240 l0 -10240 10240 0 10240 0 0 10240 0 10240 -10240 0 -10240
0 0 -10240z m11558 3449 c438 -31 800 -115 1082 -250 188 -91 306 -173 445
-313 314 -315 445 -677 445 -1227 0 -409 -85 -729 -268 -1004 -197 -298 -506
-523 -887 -646 -96 -31 -133 -48 -130 -57 3 -8 343 -579 757 -1270 822 -1376
789 -1314 735 -1378 l-25 -29 -314 -3 c-172 -2 -332 0 -356 3 -26 4 -55 17
-76 35 -20 18 -313 497 -782 1278 l-749 1249 -480 6 c-264 4 -517 10 -562 13
l-83 7 0 -1235 0 -1235 -23 -43 c-40 -77 -54 -80 -347 -80 -293 0 -307 3 -347
80 l-23 43 0 2940 c0 2668 1 2942 16 2973 18 38 73 69 152 84 109 20 579 52
932 63 245 8 760 6 888 -4z m5357 1 c692 -64 1202 -347 1538 -855 243 -367
379 -832 417 -1425 18 -273 8 -1693 -14 -1870 -73 -612 -257 -1084 -561 -1432
-387 -446 -1004 -679 -1730 -655 -557 19 -1008 172 -1355 462 -396 331 -657
852 -749 1500 -38 269 -43 422 -38 1270 4 847 5 871 53 1155 73 433 253 855
492 1151 85 105 240 250 353 331 108 77 285 172 416 222 168 65 423 123 638
145 117 12 413 13 540 1z m-14385 -72 c18 -13 41 -39 51 -58 18 -34 19 -133
19 -2978 0 -3220 5 -2977 -59 -3037 l-32 -30 -272 -3 c-312 -3 -323 -1 -364
78 l-23 43 0 2946 c0 2848 1 2947 19 2981 10 19 33 45 51 58 32 21 39 22 305
22 266 0 273 -1 305 -22z m2095 -1 c22 -13 49 -40 62 -62 l23 -40 0 -1217 0
-1218 1415 0 1415 0 0 1218 0 1217 23 40 c13 22 40 49 62 62 39 22 49 23 290
23 241 0 251 -1 290 -23 22 -13 49 -40 62 -62 l23 -40 0 -2939 0 -2939 -24
-41 c-13 -23 -42 -51 -64 -64 -38 -21 -49 -22 -288 -22 -240 0 -250 1 -289 23
-22 13 -49 40 -62 62 l-23 40 0 1388 0 1387 -1415 0 -1415 0 0 -1387 0 -1386
-24 -41 c-13 -23 -42 -51 -64 -64 -38 -21 -49 -22 -287 -22 -238 0 -249 1
-287 22 -22 13 -51 41 -64 64 l-24 41 0 2939 0 2939 23 40 c13 22 40 49 62 62
39 22 49 23 290 23 241 0 251 -1 290 -23z"/>
<path d="M10515 13010 c-99 -4 -186 -8 -192 -9 -10 -1 -13 -234 -13 -1130 l0
-1129 168 -7 c295 -14 1025 -11 1157 3 441 49 703 149 886 339 186 192 269
444 269 813 0 388 -107 669 -318 835 -164 130 -448 226 -796 271 -140 18 -858
27 -1161 14z"/>
<path d="M16445 13010 c-172 -20 -377 -76 -500 -137 -217 -108 -417 -316 -538
-558 -118 -237 -192 -548 -217 -910 -13 -196 -13 -1478 0 -1665 53 -743 307
-1240 745 -1458 105 -52 250 -98 394 -124 139 -25 465 -30 596 -9 368 59 625
197 809 435 224 290 342 664 376 1191 13 208 13 1392 0 1600 -37 587 -188
1009 -459 1285 -174 178 -388 283 -681 334 -112 20 -409 29 -525 16z"/>
</g>
</svg>
