<?xml version="1.0" standalone="no"?>
<!DOCTYPE svg PUBLIC "-//W3C//DTD SVG 20010904//EN"
 "http://www.w3.org/TR/2001/REC-SVG-20010904/DTD/svg10.dtd">
<svg version="1.0" xmlns="http://www.w3.org/2000/svg"
 width="2048.000000pt" height="2048.000000pt" viewBox="0 0 2048.000000 2048.000000"
 preserveAspectRatio="xMidYMid meet">
<metadata>
Created by potrace 1.11, written by Peter Selinger 2001-2013
</metadata>
<g transform="translate(0.000000,2048.000000) scale(0.100000,-0.100000)"
fill="#000000" stroke="none">
<path d="M0 10240 l0 -10240 10240 0 10240 0 0 10240 0 10240 -10240 0 -10240
0 0 -10240z m11460 3449 c998 -53 1605 -355 1899 -945 118 -237 164 -477 164
-844 0 -286 -20 -430 -90 -645 -153 -472 -535 -832 -1071 -1008 l-131 -43 756
-1265 c416 -695 760 -1280 766 -1299 7 -27 6 -44 -6 -72 -24 -57 -50 -60 -411
-56 -351 4 -352 4 -404 81 -16 23 -358 591 -761 1263 l-732 1221 -382 7 c-210
3 -464 9 -564 13 l-183 6 -2 -1239 c-3 -1219 -3 -1240 -23 -1273 -11 -19 -33
-43 -48 -55 -27 -20 -40 -21 -297 -21 -257 0 -270 1 -297 21 -15 12 -37 36
-48 55 -20 34 -20 52 -20 2979 0 2830 1 2946 18 2978 23 41 76 66 172 81 117
18 424 39 715 51 258 10 344 12 660 18 69 1 213 -3 320 -9z m5374 1 c360 -23
666 -102 936 -241 495 -256 844 -734 1001 -1374 95 -389 114 -674 106 -1663
-4 -520 -9 -713 -21 -832 -61 -589 -234 -1063 -513 -1410 -87 -107 -253 -263
-363 -342 -113 -80 -288 -172 -420 -221 -544 -202 -1269 -202 -1810 0 -610
228 -1035 740 -1220 1473 -90 356 -110 629 -110 1495 0 563 9 864 31 1050 44
382 133 694 280 987 353 704 985 1065 1899 1086 30 1 122 -3 204 -8z m-14308
-76 c15 -11 37 -33 48 -48 l21 -27 0 -2957 c0 -2939 0 -2957 -20 -2991 -11
-19 -33 -43 -48 -55 -27 -20 -40 -21 -302 -21 -262 0 -275 1 -302 21 -15 12
-37 36 -48 55 -20 34 -20 55 -23 2944 -2 1601 0 2934 3 2963 8 62 48 116 99
131 17 6 147 9 288 8 242 -2 258 -3 284 -23z m2059 15 c50 -14 100 -64 114
-114 8 -28 11 -399 11 -1237 l0 -1198 1415 0 1415 0 0 1208 c0 1150 1 1209 19
1247 43 93 79 104 351 105 127 0 231 -5 255 -11 50 -14 100 -64 114 -114 15
-57 15 -5823 0 -5880 -14 -50 -64 -100 -114 -114 -53 -14 -447 -14 -500 0 -50
14 -100 64 -114 114 -8 28 -11 446 -11 1408 l0 1367 -1415 0 -1415 0 0 -1367
c0 -962 -3 -1380 -11 -1408 -14 -50 -64 -100 -114 -114 -53 -14 -447 -14 -500
0 -50 14 -100 64 -114 114 -15 55 -16 5823 0 5878 14 50 55 95 104 112 50 18
449 21 510 4z"/>
<path d="M10455 13013 c-55 -1 -110 -5 -122 -8 l-23 -5 0 -1129 0 -1129 28 -6
c62 -13 1076 -19 1227 -7 733 59 1085 297 1200 811 25 112 32 482 11 618 -49
320 -199 537 -462 670 -139 70 -367 133 -604 168 -94 14 -208 17 -635 19 -286
1 -565 0 -620 -2z"/>
<path d="M16440 13013 c-172 -18 -411 -88 -534 -157 -259 -145 -451 -381 -571
-700 -72 -195 -123 -435 -145 -691 -13 -163 -13 -1616 1 -1782 45 -542 205
-952 471 -1208 51 -50 115 -106 141 -124 73 -50 241 -127 342 -155 179 -52
252 -60 510 -61 211 0 254 3 353 23 205 41 384 115 513 212 331 247 526 674
584 1280 21 208 21 1642 0 1850 -40 414 -134 719 -302 980 -75 116 -252 289
-359 352 -146 86 -323 144 -524 173 -96 13 -383 18 -480 8z"/>
</g>
</svg>
